<?xml version="1.0" standalone="no"?><!DOCTYPE svg PUBLIC "-//W3C//DTD SVG 1.1//EN" "http://www.w3.org/Graphics/SVG/1.1/DTD/svg11.dtd"><svg width="100%" height="100%" viewBox="0 0 716 235" version="1.1" xmlns="http://www.w3.org/2000/svg" xmlns:xlink="http://www.w3.org/1999/xlink" xml:space="preserve" style="fill-rule:evenodd;clip-rule:evenodd;stroke-linejoin:round;stroke-miterlimit:1.41421;"><g><g><path d="M216.744,116.704c-3.16,22.991 -15.2,34.732 -36.121,35.222c-6.265,-0.109 -11.768,-1.267 -16.508,-3.473c-4.74,-2.207 -8.744,-5.435 -12.013,-9.684l0.082,0.082c-6.701,-8.173 -10.052,-18.224 -10.052,-30.156c0,-6.21 0.831,-12.067 2.493,-17.57c1.661,-5.502 4.072,-10.46 7.232,-14.873c3.269,-4.467 7.464,-7.9 12.585,-10.297c5.121,-2.397 11.141,-3.65 18.061,-3.759c8.39,0 15.69,2.397 21.901,7.191c6.265,5.013 10.215,13.375 11.849,25.089l-9.316,0c-1.471,-8.608 -4.331,-14.628 -8.58,-18.061c-2.289,-1.579 -4.74,-2.792 -7.355,-3.636c-2.616,-0.845 -5.449,-1.267 -8.499,-1.267c-2.888,0 -5.557,0.259 -8.009,0.777c-2.452,0.517 -4.658,1.321 -6.62,2.41c-1.906,1.035 -3.65,2.275 -5.23,3.719c-1.58,1.443 -2.969,3.01 -4.168,4.699l0.082,-0.082c-2.342,3.814 -4.127,7.886 -5.353,12.217c-1.225,4.331 -1.811,8.813 -1.757,13.443c0,9.371 2.534,17.353 7.601,23.945c2.451,3.378 5.475,5.87 9.071,7.477c3.595,1.607 7.763,2.438 12.503,2.493c3.541,0 6.892,-0.531 10.052,-1.594c3.16,-1.062 5.965,-2.628 8.417,-4.699l-0.082,0c4.577,-4.249 7.355,-10.787 8.336,-19.613l9.398,0Z" style="fill:#4fa0ee;fill-rule:nonzero;"/><path d="M227.041,32.94l9.234,0l0,40.86c0.763,-0.926 1.553,-1.784 2.37,-2.574c0.817,-0.79 1.689,-1.566 2.615,-2.329l0,0.082c5.394,-4.413 12.395,-6.674 21.003,-6.783c9.316,0 16.861,2.724 22.636,8.172c5.775,5.557 8.717,13.43 8.826,23.618l0,56.06l-9.316,0l0,-55.57c-0.054,-4.141 -0.586,-7.682 -1.593,-10.624c-1.008,-2.942 -2.575,-5.285 -4.699,-7.028l0.081,0.082c-4.576,-3.596 -9.861,-5.394 -15.854,-5.394c-4.14,0.109 -7.859,0.94 -11.155,2.493c-3.296,1.552 -5.979,3.582 -8.049,6.088c-2.016,2.942 -3.664,6.292 -4.944,10.052c-1.281,3.759 -1.921,7.627 -1.921,11.604l0,48.297l-9.234,0l0,-117.106Z" style="fill:#4fa0ee;fill-rule:nonzero;"/><path d="M367.111,101.504c-0.218,-4.086 -0.953,-7.845 -2.206,-11.278c-1.253,-3.432 -2.888,-6.592 -4.904,-9.479c-2.397,-2.942 -5.393,-5.217 -8.989,-6.824c-3.596,-1.607 -7.709,-2.411 -12.34,-2.411c-3.759,0 -7.3,0.749 -10.624,2.248c-3.323,1.498 -6.347,3.609 -9.071,6.333c-2.451,2.778 -4.413,5.911 -5.884,9.398c-1.471,3.487 -2.506,7.491 -3.105,12.013l57.123,0ZM309.661,110.738c0.218,4.631 0.899,8.745 2.043,12.34c1.144,3.596 2.751,6.892 4.822,9.889c2.233,3.269 5.121,5.679 8.662,7.232c3.541,1.553 7.873,2.356 12.994,2.411c7.791,-0.055 14.042,-2.248 18.755,-6.579c4.712,-4.331 7.94,-10.937 9.684,-19.817l9.316,0c-1.634,12.312 -5.748,21.302 -12.34,26.968c-6.81,5.775 -15.2,8.69 -25.17,8.744c-13.239,-0.109 -22.909,-4.522 -29.011,-13.239c-6.156,-8.39 -9.18,-18.932 -9.071,-31.626c0.109,-7.137 1.171,-13.47 3.187,-19c2.016,-5.53 4.903,-10.256 8.662,-14.179l-0.081,0c7.3,-7.791 16.072,-11.686 26.314,-11.686c6.701,0.109 12.544,1.376 17.529,3.8c4.985,2.424 9.058,5.898 12.218,10.419c1.198,1.962 2.301,4.087 3.309,6.375c1.008,2.288 1.893,4.658 2.656,7.109c0.763,2.452 1.362,4.945 1.798,7.478c0.436,2.533 0.654,5.026 0.654,7.478c0,0.163 0,0.354 0,0.572c0,0.217 -0.014,0.531 -0.041,0.939c-0.027,0.409 -0.068,0.954 -0.123,1.635c-0.054,0.681 -0.136,1.593 -0.245,2.737l-66.521,0Z" style="fill:#4fa0ee;fill-rule:nonzero;"/><path d="M448.833,107.224c-0.273,-11.495 -2.929,-20.212 -7.968,-26.15c-5.04,-5.939 -12.136,-9.126 -21.289,-9.562c-4.74,0.109 -8.907,1.103 -12.503,2.983c-3.596,1.88 -6.456,4.454 -8.581,7.723c-2.07,3.595 -3.705,7.518 -4.903,11.768c-1.199,4.249 -1.798,8.662 -1.798,13.238c0,9.916 2.343,18.279 7.028,25.089c4.467,6.756 11.414,10.188 20.839,10.297c4.631,-0.055 8.731,-0.926 12.299,-2.615c3.569,-1.689 6.579,-4.277 9.03,-7.764c5.23,-6.864 7.846,-15.2 7.846,-25.007ZM419.658,62.196c6.538,0.109 12.258,1.348 17.161,3.718c4.904,2.37 8.908,5.68 12.014,9.929l0,-42.903l9.316,0l0,44.701c0,0.436 0.013,0.899 0.041,1.39c0.027,0.49 0.04,1.007 0.04,1.552l0,4.086c0,0.927 0.014,1.839 0.041,2.738c0.028,0.899 0.041,1.839 0.041,2.819c0,3.051 -0.041,6.238 -0.122,9.562c-0.082,3.323 -0.246,6.565 -0.491,9.725c-0.245,3.16 -0.585,6.129 -1.021,8.907c-0.436,2.779 -1.035,5.149 -1.798,7.11l0,-0.082c-2.561,7.846 -6.783,14.111 -12.667,18.796l0,-0.082c-3.105,2.507 -6.538,4.413 -10.297,5.721c-3.759,1.308 -7.845,1.989 -12.258,2.043c-11.604,-0.218 -20.757,-4.631 -27.458,-13.239c-6.429,-8.063 -9.644,-18.551 -9.644,-31.463c0,-6.21 0.763,-11.917 2.289,-17.12c1.525,-5.203 3.868,-9.957 7.028,-14.261l0,0.082c6.374,-8.935 15.636,-13.511 27.785,-13.729Z" style="fill:#4fa0ee;fill-rule:nonzero;"/><path d="M536.601,63.994l0,56.878c0,1.09 -0.013,2.138 -0.041,3.146c-0.027,1.008 -0.04,1.975 -0.04,2.901l0,4.005c0,0.49 -0.014,0.98 -0.041,1.471c-0.028,0.49 -0.041,0.953 -0.041,1.389l0,1.961c0,1.144 0.013,2.016 0.041,2.615c0.027,0.6 0.081,1.022 0.163,1.267c0.082,0.245 0.191,0.381 0.327,0.409c0.136,0.027 0.313,0.04 0.531,0.04l2.084,0c0.3,0 0.613,-0.013 0.94,-0.04c0.327,-0.028 0.613,-0.041 0.858,-0.041c0.245,0 0.395,0 0.449,0l0,10.051c-0.272,0 -0.858,0.014 -1.757,0.041c-0.899,0.028 -1.539,0.041 -1.92,0.041l-1.88,0c-1.961,0 -3.554,-0.122 -4.78,-0.368c-1.226,-0.245 -2.18,-0.694 -2.861,-1.348c-0.681,-0.654 -1.13,-1.594 -1.348,-2.819c-0.218,-1.226 -0.327,-2.82 -0.327,-4.781l0,-0.164c-0.708,0.818 -1.416,1.58 -2.125,2.289c-0.708,0.708 -1.471,1.389 -2.288,2.043l0.082,-0.082c-2.779,2.288 -5.911,4.018 -9.398,5.189c-3.487,1.172 -7.437,1.785 -11.85,1.839c-9.043,-0.054 -16.535,-2.86 -22.473,-8.417l0.082,0c-6.048,-5.394 -9.071,-13.185 -9.071,-23.373l0,-56.142l9.316,0l0,55.652c0.054,4.032 0.586,7.518 1.593,10.46c1.008,2.942 2.629,5.312 4.863,7.11c4.14,3.596 9.371,5.394 15.69,5.394c4.304,-0.055 8.05,-0.804 11.237,-2.248c3.187,-1.443 5.87,-3.691 8.05,-6.742c4.467,-5.775 6.701,-12.884 6.701,-21.329l0,-48.297l9.234,0Z" style="fill:#4fa0ee;fill-rule:nonzero;"/><rect x="552.619" y="32.94" width="9.316" height="117.107" style="fill:#4fa0ee;fill-rule:nonzero;"/><path d="M638.753,101.504c-0.218,-4.086 -0.953,-7.845 -2.206,-11.278c-1.254,-3.432 -2.888,-6.592 -4.904,-9.479c-2.397,-2.942 -5.393,-5.217 -8.989,-6.824c-3.596,-1.607 -7.709,-2.411 -12.34,-2.411c-3.759,0 -7.3,0.749 -10.624,2.248c-3.323,1.498 -6.347,3.609 -9.071,6.333c-2.452,2.778 -4.413,5.911 -5.884,9.398c-1.471,3.487 -2.506,7.491 -3.105,12.013l57.123,0ZM581.303,110.738c0.218,4.631 0.899,8.745 2.043,12.34c1.144,3.596 2.751,6.892 4.821,9.889c2.234,3.269 5.122,5.679 8.663,7.232c3.541,1.553 7.872,2.356 12.994,2.411c7.79,-0.055 14.042,-2.248 18.755,-6.579c4.712,-4.331 7.94,-10.937 9.684,-19.817l9.316,0c-1.635,12.312 -5.748,21.302 -12.34,26.968c-6.81,5.775 -15.2,8.69 -25.17,8.744c-13.239,-0.109 -22.909,-4.522 -29.011,-13.239c-6.157,-8.39 -9.18,-18.932 -9.071,-31.626c0.109,-7.137 1.171,-13.47 3.187,-19c2.016,-5.53 4.903,-10.256 8.662,-14.179l-0.081,0c7.3,-7.791 16.071,-11.686 26.314,-11.686c6.701,0.109 12.544,1.376 17.529,3.8c4.985,2.424 9.057,5.898 12.217,10.419c1.199,1.962 2.302,4.087 3.31,6.375c1.008,2.288 1.893,4.658 2.656,7.109c0.763,2.452 1.362,4.945 1.798,7.478c0.436,2.533 0.654,5.026 0.654,7.478c0,0.163 0,0.354 0,0.572c0,0.217 -0.014,0.531 -0.041,0.939c-0.027,0.409 -0.068,0.954 -0.123,1.635c-0.054,0.681 -0.136,1.593 -0.245,2.737l-66.521,0Z" style="fill:#4fa0ee;fill-rule:nonzero;"/><rect x="658.448" y="30.57" width="9.48" height="119.477" style="fill:#fa6583;fill-rule:nonzero;"/><path d="M697.429,73.31l0,58.104c0.054,4.467 0.79,7.11 2.206,7.927c0.709,0.436 1.226,0.708 1.553,0.817c1.526,0.382 2.833,0.572 3.923,0.572c1.634,0 3.282,-0.109 4.944,-0.327c1.662,-0.218 3.337,-0.572 5.026,-1.062l0,10.215c-1.417,0 -2.534,0.014 -3.351,0.041c-0.817,0.027 -1.444,0.068 -1.879,0.123c-0.6,0.217 -1.349,0.326 -2.248,0.326c-0.899,0 -2.002,0 -3.309,0c-4.359,0 -8.118,-1.389 -11.278,-4.167c-0.763,-0.818 -1.444,-1.73 -2.043,-2.738c-0.599,-1.008 -1.062,-2.057 -1.389,-3.146l0,0.081c-0.981,-2.342 -1.471,-5.039 -1.471,-8.09l0,-58.676l-14.71,0l0,-9.316l14.71,0l0,-22.392l9.316,-4.74l0,27.132l18.06,0l0,9.316l-18.06,0Z" style="fill:#fa6583;fill-rule:nonzero;"/></g><path d="M714.396,161.919l0,72.601c0,0 -114.68,0 -185.629,0c-26.458,0 -47.906,-21.448 -47.906,-47.906l0,-24.695l130.924,0l0,21.966c-1.343,-1.838 -3.075,-3.269 -5.195,-4.294c-2.12,-1.025 -4.594,-1.561 -7.421,-1.608c-5.254,0.094 -9.259,2.073 -12.015,5.937l0,-0.035c-1.367,1.861 -2.38,3.917 -3.04,6.166c-0.659,2.25 -0.989,4.718 -0.989,7.404c0,5.583 1.39,10.119 4.17,13.605c2.898,3.723 6.856,5.631 11.874,5.725c1.908,-0.023 3.675,-0.318 5.301,-0.883c1.625,-0.566 3.109,-1.39 4.452,-2.474l0,0.035c2.545,-2.026 4.37,-4.735 5.478,-8.127l0,0.035c0.33,-0.848 0.589,-1.873 0.777,-3.075c0.189,-1.201 0.336,-2.485 0.442,-3.852c0.106,-1.366 0.177,-2.768 0.212,-4.205c0.035,-1.437 0.053,-2.815 0.053,-4.135c0,-0.424 -0.006,-0.83 -0.018,-1.219c-0.011,-0.388 -0.017,-0.783 -0.017,-1.184l0,-1.767c0,-0.235 -0.006,-0.459 -0.018,-0.671c-0.012,-0.212 -0.018,-0.412 -0.018,-0.601l0,-22.743l98.583,0ZM682.78,178.761l4.276,0l-16.573,43.396c-0.495,1.272 -1.12,2.332 -1.873,3.18c-0.754,0.848 -1.626,1.449 -2.615,1.803c-1.485,0.471 -3.287,0.706 -5.407,0.706c-0.189,0 -0.495,-0.006 -0.919,-0.017c-0.424,-0.012 -0.73,-0.018 -0.919,-0.018l0,-3.958c0.094,0 0.324,0.006 0.689,0.018c0.365,0.012 0.642,0.017 0.831,0.017l0.883,0c0.778,0 1.461,-0.047 2.05,-0.141c0.589,-0.094 1.072,-0.247 1.449,-0.459c0.4,-0.189 0.801,-0.56 1.201,-1.114c0.401,-0.553 0.742,-1.195 1.025,-1.925c0.306,-0.778 0.618,-1.567 0.936,-2.368c0.319,-0.801 0.631,-1.614 0.937,-2.439c0.094,-0.212 0.165,-0.406 0.212,-0.583c0.047,-0.176 0.118,-0.371 0.212,-0.583c-1.178,-2.803 -2.403,-5.707 -3.675,-8.711c-1.272,-3.004 -2.551,-6.025 -3.834,-9.064c-1.284,-3.039 -2.557,-6.061 -3.817,-9.065c-1.261,-3.003 -2.48,-5.895 -3.658,-8.675l4.312,0l12.757,30.426l11.52,-30.426ZM546.62,197.384c0,-2.568 0.383,-4.988 1.148,-7.262c0.766,-2.273 1.832,-4.329 3.199,-6.166c1.484,-1.838 3.274,-3.281 5.371,-4.329c2.097,-1.049 4.5,-1.597 7.209,-1.644c2.709,0.047 5.13,0.595 7.262,1.644c2.132,1.048 3.941,2.491 5.425,4.329c1.343,1.837 2.373,3.893 3.092,6.166c0.719,2.274 1.078,4.694 1.078,7.262c0,2.568 -0.342,4.965 -1.025,7.192c-0.683,2.226 -1.732,4.293 -3.145,6.202c-1.484,1.932 -3.287,3.404 -5.407,4.417c-2.12,1.013 -4.571,1.543 -7.351,1.59c-2.662,-0.047 -5.041,-0.595 -7.138,-1.643c-2.097,-1.048 -3.887,-2.503 -5.371,-4.364c-1.414,-1.885 -2.492,-3.952 -3.234,-6.202c-0.742,-2.25 -1.113,-4.647 -1.113,-7.192ZM626.38,192.154c0.518,-6.691 4.04,-10.071 10.566,-10.142c0.966,0 1.891,0.071 2.774,0.212c0.884,0.141 1.667,0.33 2.35,0.565c0.471,0.189 0.901,0.442 1.29,0.76c0.389,0.318 0.713,0.677 0.972,1.078c0.589,0.754 0.966,1.567 1.131,2.438c0.07,0.495 0.123,1.025 0.159,1.591c0.035,0.565 0.053,1.083 0.053,1.554c0,1.014 -0.153,1.732 -0.46,2.156c-0.188,0.259 -0.436,0.471 -0.742,0.636c-0.306,0.165 -0.636,0.307 -0.989,0.424l0.035,0c-0.448,0.118 -0.989,0.23 -1.626,0.336c-0.636,0.106 -1.401,0.194 -2.297,0.265c-0.612,0.047 -1.242,0.094 -1.89,0.141c-0.648,0.048 -1.337,0.095 -2.068,0.142l-0.388,0c-0.259,0.023 -0.56,0.041 -0.901,0.053c-0.342,0.012 -0.666,0.041 -0.972,0.088c-0.731,0 -1.455,0.047 -2.174,0.142c-0.718,0.094 -1.454,0.235 -2.208,0.424c-0.754,0.164 -1.502,0.388 -2.244,0.671c-0.742,0.283 -1.42,0.624 -2.032,1.025c-0.636,0.4 -1.231,0.907 -1.785,1.519c-0.554,0.613 -1.031,1.284 -1.431,2.015c-0.401,0.754 -0.707,1.619 -0.919,2.597c-0.212,0.978 -0.318,2.067 -0.318,3.269c0.024,1.72 0.365,3.251 1.025,4.594c0.66,1.343 1.567,2.474 2.721,3.393c1.131,0.848 2.474,1.507 4.029,1.979c1.554,0.471 3.263,0.706 5.124,0.706c3.887,-0.047 7.185,-1.036 9.895,-2.968c0.989,-0.683 1.861,-1.449 2.615,-2.297c0.023,0.777 0.129,1.449 0.318,2.014c0.188,0.566 0.441,1.025 0.76,1.378c0.318,0.354 0.677,0.613 1.077,0.778c0.401,0.165 0.813,0.247 1.237,0.247c0.754,0 1.555,-0.394 2.403,-1.184c0.848,-0.789 1.579,-1.808 2.191,-3.056c-0.235,0 -0.518,0.005 -0.848,0.017c-0.33,0.012 -0.677,0.024 -1.042,0.036c-0.366,0.011 -0.725,0.023 -1.078,0.035c-0.354,0.012 -0.648,0.018 -0.884,0.018c-0.07,0 -0.106,-0.212 -0.106,-0.637l0,-21.98c-0.188,-4.17 -1.531,-7.139 -4.028,-8.906c-2.38,-1.578 -5.289,-2.344 -8.729,-2.297c-4.665,0.047 -8.175,1.249 -10.531,3.605c-1.249,1.178 -2.203,2.644 -2.862,4.399c-0.66,1.756 -1.049,3.811 -1.167,6.167l3.994,0ZM524.074,215.973l0,-9.259l-4.029,0l0,9.259l4.029,0ZM536.866,178.761l0,-11.733l-4.028,2.05l0,9.683l-6.361,0l0,4.028l6.361,0l0,25.374c0,1.319 0.212,2.485 0.636,3.498l0,-0.035c0.141,0.471 0.341,0.925 0.601,1.36c0.259,0.436 0.553,0.831 0.883,1.184c1.366,1.202 2.992,1.803 4.877,1.803l1.431,0c0.389,-0.001 0.713,-0.048 0.972,-0.142c0.188,-0.023 0.459,-0.041 0.813,-0.053c0.353,-0.012 0.836,-0.018 1.449,-0.018l0,-4.417c-0.731,0.212 -1.455,0.365 -2.174,0.46c-0.718,0.094 -1.431,0.141 -2.138,0.141c-0.471,0 -1.036,-0.083 -1.696,-0.247c-0.141,-0.048 -0.365,-0.165 -0.672,-0.354c-0.612,-0.353 -0.93,-1.496 -0.954,-3.428l0,-25.126l7.81,0l0,-4.028l-7.81,0ZM550.648,197.384c0,2.097 0.289,4.041 0.866,5.831c0.577,1.791 1.431,3.44 2.562,4.948c2.144,2.992 5.301,4.523 9.471,4.594c4.241,-0.071 7.433,-1.602 9.577,-4.594c2.191,-2.898 3.286,-6.491 3.286,-10.779c0,-4.24 -1.095,-7.845 -3.286,-10.813c-2.12,-2.969 -5.313,-4.488 -9.577,-4.559c-4.193,0.071 -7.35,1.59 -9.471,4.559c-1.131,1.554 -1.985,3.227 -2.562,5.018c-0.577,1.79 -0.866,3.722 -0.866,5.795ZM611.785,197.455c-0.118,-4.971 -1.267,-8.741 -3.446,-11.308c-2.179,-2.568 -5.248,-3.947 -9.206,-4.135c-2.049,0.047 -3.852,0.477 -5.406,1.29c-1.555,0.813 -2.792,1.926 -3.711,3.339c-0.895,1.555 -1.602,3.251 -2.12,5.089c-0.519,1.838 -0.778,3.746 -0.778,5.725c0,4.288 1.013,7.904 3.039,10.849c1.932,2.921 4.936,4.406 9.012,4.453c2.002,-0.024 3.775,-0.401 5.318,-1.131c1.543,-0.73 2.845,-1.85 3.905,-3.357c2.262,-2.969 3.393,-6.573 3.393,-10.814ZM645.675,196.925c-0.044,0.022 -0.089,0.039 -0.133,0.051l-0.018,0.004c-0.044,0.012 -0.088,0.029 -0.132,0.051c-1.013,0.4 -2.226,0.671 -3.64,0.813c-1.201,0.117 -2.503,0.229 -3.905,0.335c-1.402,0.106 -2.821,0.207 -4.258,0.301c-0.683,0.023 -1.325,0.059 -1.926,0.106c-0.601,0.047 -1.16,0.129 -1.679,0.247c-0.471,0.142 -0.972,0.318 -1.502,0.53c-0.53,0.212 -1.042,0.483 -1.537,0.813c-0.754,0.401 -1.366,1.084 -1.838,2.05c-0.259,0.494 -0.459,1.06 -0.6,1.696c-0.142,0.636 -0.212,1.366 -0.212,2.191c0,0.377 0.047,0.76 0.141,1.148c0.094,0.389 0.224,0.819 0.389,1.29c0.118,0.377 0.288,0.725 0.512,1.043c0.224,0.318 0.465,0.607 0.725,0.866c1.39,1.507 3.722,2.273 6.997,2.297c2.002,-0.024 3.793,-0.348 5.371,-0.972c1.579,-0.624 2.922,-1.537 4.029,-2.739c1.06,-1.201 1.861,-2.491 2.403,-3.87c0.542,-1.378 0.813,-2.868 0.813,-4.47l0,-3.64c0.4,-0.282 0,-0.141 0,-0.141Z" style="fill:#fa6583;"/><path d="M81.85,81.936c0.221,0.054 0.444,0.106 0.666,0.159c1.499,0.354 3.011,0.722 4.536,1.103c0.926,0.273 1.798,0.504 2.615,0.695c0.817,0.191 1.662,0.368 2.533,0.531c2.289,0.49 4.495,1.008 6.62,1.553c2.125,0.545 4.168,1.089 6.129,1.634c0.436,0.109 0.858,0.218 1.267,0.327c0.408,0.109 0.83,0.218 1.266,0.327c2.452,0.763 4.781,1.621 6.988,2.574c2.206,0.954 4.235,1.948 6.088,2.983c3.813,2.234 6.973,5.448 9.479,9.643c2.234,4.141 3.351,9.371 3.351,15.691c-0.109,5.775 -1.403,10.841 -3.882,15.2c-2.479,4.358 -5.952,7.927 -10.419,10.705c-4.195,2.452 -8.731,4.345 -13.607,5.68c-4.876,1.335 -9.956,2.002 -15.241,2.002c-6.81,0 -13.062,-0.871 -18.755,-2.615c-5.693,-1.743 -10.692,-4.249 -14.996,-7.518c-4.086,-3.596 -7.355,-8.486 -9.806,-14.669c-2.452,-6.184 -3.705,-13.416 -3.76,-21.697l9.48,0c0.109,14.383 3.514,24.08 10.215,29.093c7.083,5.339 16.29,7.981 27.622,7.927c8.935,0 16.78,-2.016 23.536,-6.048c6.535,-3.703 9.913,-9.802 10.133,-18.297c-0.005,-2.477 -0.277,-4.714 -0.817,-6.71c-0.545,-2.015 -1.28,-3.732 -2.206,-5.148c-0.981,-1.417 -2.18,-2.71 -3.596,-3.882c-1.417,-1.171 -3.024,-2.138 -4.822,-2.901c-1.743,-0.926 -3.623,-1.716 -5.638,-2.37c-2.016,-0.654 -4.168,-1.226 -6.456,-1.716c-2.343,-0.599 -4.604,-1.144 -6.783,-1.634c-2.18,-0.491 -4.468,-0.954 -6.865,-1.39c-0.163,-0.054 -0.34,-0.109 -0.531,-0.163c-0.191,-0.055 -0.422,-0.109 -0.695,-0.164c-0.327,-0.108 -0.694,-0.204 -1.103,-0.286c-0.409,-0.081 -0.749,-0.177 -1.021,-0.286c-0.811,-0.238 -1.642,-0.455 -2.494,-0.652l-0.733,-0.166c-0.852,-0.197 -1.684,-0.414 -2.494,-0.653c-0.763,-0.272 -1.539,-0.504 -2.329,-0.694c-0.79,-0.191 -1.566,-0.395 -2.329,-0.613c-0.172,-0.045 -0.345,-0.091 -0.517,-0.138c3.405,-2.11 6.549,-4.602 9.371,-7.417ZM123.908,118.919l0,0.073l0,-0.081l0,0.008ZM94.186,28.071c3.689,0.281 7.155,0.855 10.395,1.722c4.985,1.335 9.466,3.419 13.443,6.252c7.954,5.938 12.395,16.753 13.321,32.443l-9.48,0c-0.545,-12.476 -3.841,-20.784 -9.888,-24.925c-4.141,-2.963 -9.276,-4.867 -15.405,-5.71c-0.481,-3.376 -1.287,-6.647 -2.386,-9.782Z" style="fill:#4fa0ee;"/><g><path d="M45.222,0c24.958,0 45.221,20.263 45.221,45.222c0,24.958 -20.263,45.221 -45.221,45.221c-24.959,0 -45.222,-20.263 -45.222,-45.221c0,-24.959 20.263,-45.222 45.222,-45.222ZM45.222,8.781c20.112,0 36.441,16.328 36.441,36.441c0,20.112 -16.329,36.441 -36.441,36.441c-20.113,0 -36.441,-16.329 -36.441,-36.441c0,-20.113 16.328,-36.441 36.441,-36.441Z" style="fill:#fa6583;"/></g><path d="M41.842,41.982l0,-17.66c0,-1.634 1.324,-2.958 2.957,-2.958c0.077,0 0.153,0 0.23,0c1.633,0 2.957,1.324 2.957,2.958l0,17.263c0.363,0.202 0.702,0.444 1.011,0.718l15.688,-8.11c0.696,-0.36 1.508,-0.428 2.255,-0.19c0.747,0.238 1.37,0.763 1.73,1.459c0.039,0.075 0.077,0.15 0.116,0.225c0.36,0.697 0.429,1.508 0.191,2.255c-0.238,0.748 -0.763,1.37 -1.46,1.73l-16.921,8.747c-0.773,2.225 -2.888,3.823 -5.374,3.823c-3.139,0 -5.687,-2.548 -5.687,-5.687c0,-1.874 0.908,-3.537 2.307,-4.573Z" style="fill:#fa6583;"/></g></svg>