<?xml version="1.0" standalone="no"?><!DOCTYPE svg PUBLIC "-//W3C//DTD SVG 1.1//EN" "http://www.w3.org/Graphics/SVG/1.1/DTD/svg11.dtd"><svg width="100%" height="100%" viewBox="0 0 24 20" version="1.1" xmlns="http://www.w3.org/2000/svg" xmlns:xlink="http://www.w3.org/1999/xlink" xml:space="preserve" style="fill-rule:evenodd;clip-rule:evenodd;stroke-linejoin:round;stroke-miterlimit:1.41421;"><g><g><path d="M5.945,5.276c0.872,-0.946 -0.424,-1.992 -1.221,-1.12l-4.309,4.134c-0.498,0.473 -0.597,1.021 -0.024,1.495l4.284,4.159c0.846,0.797 2.117,-0.374 1.245,-1.22l-3.985,-3.662l4.01,-3.786Z" style="fill:#4fa0ee;fill-rule:nonzero;"/><path d="M7.14,18.029c-0.473,0.996 0.997,1.843 1.569,0.697l7.522,-17.584c0.449,-1.046 -1.22,-1.594 -1.619,-0.673l-7.472,17.56Z" style="fill:#4fa0ee;fill-rule:nonzero;"/><path d="M21.661,9.062l-3.935,3.662c-0.872,0.846 0.398,2.017 1.245,1.22l4.284,-4.159c0.573,-0.474 0.473,-1.022 -0.025,-1.495l-4.309,-4.134c-0.797,-0.872 -2.092,0.174 -1.22,1.12l3.96,3.786Z" style="fill:#4fa0ee;fill-rule:nonzero;"/></g></g></svg>