<?xml version="1.0" standalone="no"?><!DOCTYPE svg PUBLIC "-//W3C//DTD SVG 1.1//EN" "http://www.w3.org/Graphics/SVG/1.1/DTD/svg11.dtd"><svg width="100%" height="100%" viewBox="0 0 18 22" version="1.1" xmlns="http://www.w3.org/2000/svg" xmlns:xlink="http://www.w3.org/1999/xlink" xml:space="preserve" style="fill-rule:evenodd;clip-rule:evenodd;stroke-linejoin:round;stroke-miterlimit:1.41421;"><g><g><path d="M11.773,7.392c0.047,0.006 0.059,0.006 0.106,0.017c0.069,0.016 0.136,0.044 0.197,0.081c0.061,0.038 0.116,0.084 0.163,0.139c0.105,0.122 0.164,0.281 0.165,0.442c0.001,0.072 -0.01,0.143 -0.032,0.212c-0.022,0.068 -0.054,0.132 -0.096,0.191c-0.028,0.038 -0.037,0.046 -0.069,0.081l-11.034,11.198c-0.035,0.033 -0.043,0.042 -0.082,0.071c-0.072,0.053 -0.155,0.092 -0.243,0.113c-0.069,0.018 -0.142,0.024 -0.214,0.018c-0.072,-0.005 -0.142,-0.022 -0.209,-0.049c-0.15,-0.062 -0.276,-0.177 -0.35,-0.322c-0.033,-0.064 -0.055,-0.133 -0.067,-0.204c-0.007,-0.048 -0.006,-0.06 -0.008,-0.108l0,-11.197c0.002,-0.048 0.001,-0.06 0.008,-0.107c0.009,-0.053 0.024,-0.106 0.044,-0.155c0.076,-0.184 0.232,-0.328 0.421,-0.389c0.051,-0.017 0.104,-0.028 0.158,-0.032c0.018,-0.001 0.036,-0.001 0.054,-0.002l11.034,0c0.018,0.001 0.036,0.001 0.054,0.002ZM1.37,8.76l0,8.842l8.713,-8.842c-2.904,0 -5.809,0 -8.713,0Z" style="fill:#fe777b;fill-rule:nonzero;"/><path d="M16.551,12.544c0.045,0.005 0.057,0.005 0.101,0.015c0.05,0.012 0.099,0.029 0.145,0.051c0.17,0.082 0.301,0.234 0.357,0.415c0.015,0.049 0.025,0.1 0.028,0.151c0.002,0.017 0.002,0.034 0.002,0.051l0,7.258c0,0.017 0,0.034 -0.002,0.051c-0.003,0.051 -0.013,0.102 -0.028,0.151c-0.061,0.197 -0.212,0.36 -0.404,0.435c-0.048,0.019 -0.098,0.032 -0.148,0.04c-0.045,0.007 -0.057,0.006 -0.102,0.008l-9.634,0c-0.046,-0.002 -0.057,-0.001 -0.102,-0.008c-0.051,-0.008 -0.101,-0.021 -0.148,-0.04c-0.193,-0.075 -0.344,-0.238 -0.404,-0.435c-0.016,-0.049 -0.025,-0.1 -0.029,-0.151c-0.001,-0.017 -0.001,-0.034 -0.002,-0.051l0,-7.258c0.002,-0.045 0.001,-0.057 0.008,-0.102c0.007,-0.051 0.021,-0.1 0.039,-0.148c0.076,-0.193 0.239,-0.343 0.436,-0.404c0.049,-0.015 0.1,-0.025 0.151,-0.029c0.017,-0.001 0.034,-0.001 0.051,-0.002l9.634,0c0.017,0.001 0.034,0.001 0.051,0.002ZM7.551,13.912l0,5.888l8.264,0l0,-5.888c-2.755,0 -5.51,0 -8.264,0Z" style="fill:#fe777b;fill-rule:nonzero;"/><path d="M5.97,0c0.181,0.004 0.36,0.016 0.539,0.041c0.416,0.058 0.822,0.179 1.202,0.356c0.417,0.195 0.802,0.459 1.136,0.777c0.357,0.341 0.655,0.744 0.875,1.186c0.178,0.359 0.305,0.743 0.376,1.137c0.079,0.443 0.087,0.899 0.025,1.344c-0.061,0.433 -0.189,0.856 -0.378,1.249c-0.222,0.461 -0.528,0.88 -0.898,1.233c-0.384,0.366 -0.835,0.659 -1.326,0.859c-0.508,0.208 -1.056,0.315 -1.605,0.315c-0.549,0 -1.097,-0.107 -1.606,-0.315c-0.49,-0.2 -0.942,-0.493 -1.325,-0.859c-0.37,-0.353 -0.676,-0.772 -0.898,-1.233c-0.19,-0.393 -0.318,-0.816 -0.378,-1.249c-0.063,-0.445 -0.054,-0.901 0.025,-1.344c0.07,-0.394 0.197,-0.778 0.376,-1.137c0.22,-0.442 0.517,-0.845 0.875,-1.186c0.333,-0.318 0.718,-0.582 1.136,-0.777c0.38,-0.177 0.786,-0.298 1.202,-0.356c0.178,-0.025 0.358,-0.037 0.538,-0.041c0.055,0 0.055,0 0.109,0ZM5.878,1.37c-0.122,0.002 -0.244,0.01 -0.365,0.027c-0.281,0.04 -0.556,0.121 -0.813,0.241c-0.283,0.133 -0.544,0.311 -0.77,0.527c-0.226,0.215 -0.417,0.467 -0.562,0.743c-0.126,0.239 -0.218,0.495 -0.273,0.76c-0.066,0.323 -0.076,0.657 -0.03,0.983c0.039,0.281 0.121,0.556 0.241,0.813c0.147,0.314 0.351,0.601 0.599,0.844c0.257,0.251 0.56,0.453 0.891,0.593c0.342,0.145 0.711,0.221 1.082,0.226c0.373,0.005 0.746,-0.062 1.093,-0.199c0.334,-0.132 0.642,-0.328 0.905,-0.572c0.254,-0.237 0.465,-0.519 0.62,-0.829c0.131,-0.264 0.221,-0.548 0.265,-0.84c0.05,-0.326 0.044,-0.66 -0.018,-0.984c-0.049,-0.254 -0.132,-0.501 -0.247,-0.733c-0.15,-0.3 -0.352,-0.574 -0.595,-0.805c-0.217,-0.208 -0.467,-0.381 -0.738,-0.512c-0.244,-0.118 -0.505,-0.2 -0.773,-0.245c-0.132,-0.022 -0.266,-0.033 -0.4,-0.038c-0.037,0 -0.074,0 -0.112,0Z" style="fill:#fe777b;fill-rule:nonzero;"/></g></g></svg>