<?xml version="1.0" standalone="no"?><!DOCTYPE svg PUBLIC "-//W3C//DTD SVG 1.1//EN" "http://www.w3.org/Graphics/SVG/1.1/DTD/svg11.dtd"><svg width="100%" height="100%" viewBox="0 0 24 20" version="1.1" xmlns="http://www.w3.org/2000/svg" xmlns:xlink="http://www.w3.org/1999/xlink" xml:space="preserve" style="fill-rule:evenodd;clip-rule:evenodd;stroke-linejoin:round;stroke-miterlimit:1.41421;"><g><g><path d="M10.315,5.307c0.057,0.001 0.113,0.004 0.169,0.01c0.149,0.015 0.296,0.048 0.438,0.098c0.216,0.076 0.418,0.192 0.594,0.341c0.25,0.212 0.444,0.488 0.557,0.797c0.049,0.132 0.083,0.271 0.1,0.411c0.01,0.072 0.014,0.144 0.016,0.216c0.026,3.909 0.026,6.918 0,10.826c-0.002,0.073 -0.006,0.145 -0.016,0.217c-0.017,0.14 -0.051,0.278 -0.1,0.411c-0.121,0.33 -0.334,0.623 -0.61,0.84c-0.163,0.128 -0.346,0.229 -0.541,0.298c-0.142,0.05 -0.289,0.083 -0.438,0.098c-0.056,0.005 -0.112,0.008 -0.169,0.009c-2.807,0.019 -5.615,0.019 -8.422,0c-0.056,-0.001 -0.112,-0.004 -0.169,-0.009c-0.149,-0.015 -0.296,-0.048 -0.437,-0.098c-0.195,-0.069 -0.379,-0.17 -0.541,-0.298c-0.276,-0.217 -0.49,-0.51 -0.611,-0.84c-0.049,-0.133 -0.082,-0.271 -0.1,-0.411c-0.009,-0.072 -0.014,-0.144 -0.015,-0.217c-0.027,-3.908 -0.027,-6.917 0,-10.826c0.001,-0.072 0.006,-0.144 0.015,-0.216c0.018,-0.14 0.051,-0.279 0.1,-0.411c0.113,-0.309 0.307,-0.585 0.558,-0.797c0.175,-0.149 0.377,-0.265 0.594,-0.341c0.141,-0.05 0.288,-0.083 0.437,-0.098c0.057,-0.006 0.113,-0.009 0.169,-0.01c2.807,-0.019 5.615,-0.019 8.422,0ZM1.92,6.562c-0.079,0.001 -0.157,0.014 -0.23,0.042c-0.173,0.066 -0.313,0.207 -0.376,0.38c-0.025,0.068 -0.038,0.14 -0.039,0.213c-0.026,3.903 -0.122,6.908 0,10.81c0.004,0.069 0.017,0.138 0.042,0.203c0.064,0.17 0.202,0.308 0.373,0.373c0.067,0.025 0.138,0.039 0.211,0.041c2.804,0.053 5.611,0.088 8.415,0c0.07,-0.003 0.138,-0.017 0.203,-0.041c0.168,-0.064 0.304,-0.199 0.37,-0.366c0.027,-0.067 0.041,-0.138 0.044,-0.21c0.122,-3.907 0.122,-6.92 0,-10.827c-0.003,-0.07 -0.016,-0.138 -0.041,-0.203c-0.065,-0.17 -0.203,-0.308 -0.373,-0.373c-0.068,-0.026 -0.139,-0.039 -0.211,-0.041c-2.796,-0.054 -5.592,-0.001 -8.388,-0.001Z" style="fill:#58c0c0;fill-rule:nonzero;"/><path d="M3.486,6.124c0.003,-1.4 0.009,-2.8 0.017,-4.2c0.002,-0.073 0.006,-0.147 0.016,-0.219c0.018,-0.143 0.052,-0.283 0.101,-0.417c0.093,-0.254 0.241,-0.488 0.43,-0.682c0.206,-0.21 0.459,-0.372 0.736,-0.47c0.128,-0.045 0.261,-0.077 0.395,-0.094c0.073,-0.009 0.146,-0.014 0.219,-0.015c5.248,-0.036 10.496,-0.036 15.744,0c0.073,0.001 0.146,0.006 0.219,0.015c0.135,0.017 0.267,0.049 0.395,0.094c0.277,0.098 0.531,0.26 0.736,0.47c0.195,0.2 0.345,0.441 0.438,0.704c0.048,0.135 0.08,0.276 0.097,0.419c0.007,0.064 0.011,0.13 0.012,0.195c0.031,4.6 0.031,8.301 0,12.901c-0.001,0.065 -0.005,0.13 -0.012,0.195c-0.017,0.143 -0.049,0.284 -0.097,0.419c-0.093,0.263 -0.243,0.504 -0.438,0.704c-0.205,0.21 -0.459,0.372 -0.736,0.47c-0.128,0.045 -0.26,0.077 -0.395,0.094c-0.073,0.009 -0.146,0.014 -0.219,0.015c-3.227,0.022 -6.455,0.031 -9.683,0.025l0,-1.22c3.229,0.03 6.458,0.039 9.685,-0.061c0.074,-0.003 0.148,-0.018 0.218,-0.045c0.172,-0.068 0.313,-0.211 0.379,-0.384c0.027,-0.073 0.041,-0.15 0.043,-0.228c0.031,-4.596 0.146,-8.293 -0.001,-12.887c-0.003,-0.074 -0.018,-0.148 -0.045,-0.217c-0.067,-0.171 -0.206,-0.31 -0.376,-0.377c-0.076,-0.029 -0.155,-0.044 -0.236,-0.046c-5.233,-0.036 -10.467,0 -15.701,0c-0.084,0.001 -0.168,0.015 -0.246,0.046c-0.173,0.068 -0.313,0.21 -0.379,0.384c-0.027,0.07 -0.041,0.144 -0.043,0.219c-0.027,1.397 -0.05,2.795 -0.067,4.193l-1.206,0Z" style="fill:#58c0c0;"/></g></g></svg>